<svg width="180" height="180" viewBox="0 0 180 180" fill="none" xmlns="http://www.w3.org/2000/svg">
<rect width="180" height="180" rx="90" fill="url(#paint0_linear_21_28)"/>
<path d="M59.2266 60.828L45.5559 85.5654C43.3549 89.5483 43.4412 94.4019 45.7824 98.3041L45.9681 98.6135C48.1593 102.265 52.1059 104.5 56.3647 104.5H59.3177C61.612 104.5 63.7482 103.331 64.985 101.399C67.7161 97.1311 74.0054 97.2991 76.5049 101.706L86.3726 119.104C88.6146 123.057 92.8083 125.5 97.3528 125.5C101.787 125.5 105.903 123.161 108.185 119.359C110.537 115.438 110.604 110.541 108.346 106.565L82.3013 60.6948C79.9517 56.5567 75.5599 54 70.8013 54C65.988 54 61.5548 56.6152 59.2266 60.828Z" fill="white"/>
<path d="M113.397 98.2773L98.5372 72.6098C96.3444 68.8221 96.311 64.1589 98.4495 60.3403C100.642 56.4249 104.779 54 109.267 54H109.519C114.142 54 118.407 56.4875 120.684 60.5112L135.044 85.8915C137.19 89.6841 137.2 94.3217 135.071 98.1236C132.866 102.061 128.704 104.5 124.191 104.5C119.741 104.5 115.627 102.129 113.397 98.2773Z" fill="white"/>
<defs>
<linearGradient id="paint0_linear_21_28" x1="-14.5" y1="3.0314e-06" x2="128.6" y2="121.742" gradientUnits="userSpaceOnUse">
<stop stop-color="#E64E4E"/>
<stop offset="1" stop-color="#E6A74E"/>
</linearGradient>
</defs>
</svg>
