<svg width="94" height="103" viewBox="0 0 94 103" fill="none" xmlns="http://www.w3.org/2000/svg">
<path fill-rule="evenodd" clip-rule="evenodd" d="M19.902 102.5V71.7078C6.90199 71.7078 -28.9547 6.37201e-05 46.9023 0C119.402 -6.08997e-05 90.9021 71.7078 73.902 71.7078V102.5H58.402V71.7078H55.9021L53.402 102.5H40.902L38.9021 71.7078H35.902V102.5H19.902ZM38.9021 40.9156C38.9021 46.5066 34.6488 51.039 29.4021 51.039C24.1554 51.039 19.9021 46.5066 19.9021 40.9156C19.9021 35.3246 24.1554 30.7922 29.4021 30.7922C34.6488 30.7922 38.9021 35.3246 38.9021 40.9156ZM67.4021 51.039C72.6488 51.039 76.9021 46.5066 76.9021 40.9156C76.9021 35.3246 72.6488 30.7922 67.4021 30.7922C62.1554 30.7922 57.9021 35.3246 57.9021 40.9156C57.9021 46.5066 62.1554 51.039 67.4021 51.039Z" fill="#EFEBDE"/>
</svg>
